ISO-10303-21;
HEADER;
FILE_DESCRIPTION((''),'2;1');
FILE_NAME('Ingenious Bojo-Crift', '2026-05-10T16:14:16', (''), (''), 'ImageToStl.com STEP Converter','', '');
FILE_SCHEMA(('AUTOMOTIVE_DESIGN_CC2'));
ENDSEC;
DATA;
#1=PRODUCT_DEFINITION_CONTEXT('',#4,'design');
#2=APPLICATION_PROTOCOL_DEFINITION('INTERNATIONAL STANDARD','automotive_design',1994,#4);
#3=(GEOMETRIC_REPRESENTATION_CONTEXT(3)GLOBAL_UNCERTAINTY_ASSIGNED_CONTEXT((#5))GLOBAL_UNIT_ASSIGNED_CONTEXT((#6,#7,#8))REPRESENTATION_CONTEXT('NONE','WORKSPACE'));
#4=APPLICATION_CONTEXT(' ');
#5=UNCERTAINTY_MEASURE_WITH_UNIT(LENGTH_MEASURE(1.0E-006),#6,'','');
#6=(CONVERSION_BASED_UNIT('METRE',#10)LENGTH_UNIT()NAMED_UNIT(#11));
#7=(NAMED_UNIT(#12)PLANE_ANGLE_UNIT()SI_UNIT($,.RADIAN.));
#8=(NAMED_UNIT(#12)SOLID_ANGLE_UNIT()SI_UNIT($,.STERADIAN.));
#9=AXIS2_PLACEMENT_3D('',#14,#15,#16);
#10=LENGTH_MEASURE_WITH_UNIT(LENGTH_MEASURE(1.0),#17);
#11=DIMENSIONAL_EXPONENTS(1.0,0.0,0.0,0.0,0.0,0.0,0.0);
#12=DIMENSIONAL_EXPONENTS(0.0,0.0,0.0,0.0,0.0,0.0,0.0);
#13=PRODUCT_CONTEXT('',#4,'mechanical');
#14=CARTESIAN_POINT('',(0.0,0.0,0.0));
#15=DIRECTION('',(0.0,0.0,1.0));
#16=DIRECTION('',(1.0,0.0,0.0));
#17=(NAMED_UNIT(#11)LENGTH_UNIT()SI_UNIT(.MILLI.,.METRE.));
#18=PRESENTATION_STYLE_ASSIGNMENT((#19));
#19=SURFACE_STYLE_USAGE(.BOTH.,#20);
#20=SURFACE_SIDE_STYLE('',(#21));
#21=SURFACE_STYLE_FILL_AREA(#22);
#22=FILL_AREA_STYLE('',(#23));
#23=FILL_AREA_STYLE_COLOUR('',#24);
#24=COLOUR_RGB('',0.85,0.85,0.85);
#25=SHAPE_DEFINITION_REPRESENTATION(#26,#27);
#26=PRODUCT_DEFINITION_SHAPE('productshape0','',#30);
#27=MANIFOLD_SURFACE_SHAPE_REPRESENTATION('',(#28,#9),#3);
#28=SHELL_BASED_SURFACE_MODEL('shell0',(#33));
#29=PRODUCT('product0','','',(#13));
#30=PRODUCT_DEFINITION('mesh0','',#31,#2);
#31=PRODUCT_DEFINITION_FORMATION_WITH_SPECIFIED_SOURCE('prodsource0','',#29,.NOT_KNOWN.);
#32=STYLED_ITEM('',(#18),#33);
#33=CLOSED_SHELL('',(#82,#104,#126,#148,#170,#192,#214,#236,#258,#280,#302,#324,#346,#368,#390,#412,#434,#456,#478,#500,#522,#544,#566,#588,#610,#632,#654,#676,#698,#720,#742,#764,#786,#808,#830,#852,#874,#896,#918,#940,#962,#984,#1006,#1028));
#34=CARTESIAN_POINT('',(158.5,68.08300018310547,0));
#35=VERTEX_POINT('',#34);
#36=CARTESIAN_POINT('',(158.5,68.08300018310547,25));
#37=VERTEX_POINT('',#36);
#38=CARTESIAN_POINT('',(158.5,52.00299835205078,4.998000144958496));
#39=VERTEX_POINT('',#38);
#40=CARTESIAN_POINT('',(158.5,52.00299835205078,25));
#41=VERTEX_POINT('',#40);
#42=CARTESIAN_POINT('',(158.5,-80.91699981689453,25));
#43=VERTEX_POINT('',#42);
#44=CARTESIAN_POINT('',(158.5,43.99800109863281,4.998000144958496));
#45=VERTEX_POINT('',#44);
#46=CARTESIAN_POINT('',(158.5,43.99800109863281,25));
#47=VERTEX_POINT('',#46);
#48=CARTESIAN_POINT('',(158.5,-80.91699981689453,0));
#49=VERTEX_POINT('',#48);
#50=CARTESIAN_POINT('',(153.5030059814453,43.99800109863281,25));
#51=VERTEX_POINT('',#50);
#52=CARTESIAN_POINT('',(153.5030059814453,43.99800109863281,4.998000144958496));
#53=VERTEX_POINT('',#52);
#54=CARTESIAN_POINT('',(153.5030059814453,-75.91899871826172,4.998000144958496));
#55=VERTEX_POINT('',#54);
#56=CARTESIAN_POINT('',(153.5030059814453,-75.91899871826172,25));
#57=VERTEX_POINT('',#56);
#58=CARTESIAN_POINT('',(153.5030059814453,52.00299835205078,4.998000144958496));
#59=VERTEX_POINT('',#58);
#60=CARTESIAN_POINT('',(153.5030059814453,52.00299835205078,25));
#61=VERTEX_POINT('',#60);
#62=CARTESIAN_POINT('',(-206.5030059814453,-75.91899871826172,4.998000144958496));
#63=VERTEX_POINT('',#62);
#64=CARTESIAN_POINT('',(-206.5030059814453,-75.91899871826172,25));
#65=VERTEX_POINT('',#64);
#66=CARTESIAN_POINT('',(-206.5030059814453,63.08599853515625,4.998000144958496));
#67=VERTEX_POINT('',#66);
#68=CARTESIAN_POINT('',(153.5030059814453,63.08599853515625,4.998000144958496));
#69=VERTEX_POINT('',#68);
#70=CARTESIAN_POINT('',(-206.5030059814453,63.08599853515625,25));
#71=VERTEX_POINT('',#70);
#72=CARTESIAN_POINT('',(153.5030059814453,63.08599853515625,25));
#73=VERTEX_POINT('',#72);
#74=CARTESIAN_POINT('',(-211.5,68.08300018310547,0));
#75=VERTEX_POINT('',#74);
#76=CARTESIAN_POINT('',(-211.5,-80.91699981689453,0));
#77=VERTEX_POINT('',#76);
#78=CARTESIAN_POINT('',(-211.5,68.08300018310547,25));
#79=VERTEX_POINT('',#78);
#80=CARTESIAN_POINT('',(-211.5,-80.91699981689453,25));
#81=VERTEX_POINT('',#80);
#82=FACE_SURFACE('',(#87),#83,.T.);
#83=PLANE('',#84);
#84=AXIS2_PLACEMENT_3D('',#34,#85,#86);
#85=DIRECTION('',(1,0,-0));
#86=DIRECTION('',(0,0,1));
#87=FACE_BOUND('',#88,.T.);
#88=EDGE_LOOP('',(#89,#90,#91));
#89=ORIENTED_EDGE('',*,*,#92,.T.);
#90=ORIENTED_EDGE('',*,*,#93,.T.);
#91=ORIENTED_EDGE('',*,*,#94,.T.);
#92=EDGE_CURVE('',#35,#37,#95,.F.);
#93=EDGE_CURVE('',#37,#39,#96,.T.);
#94=EDGE_CURVE('',#39,#35,#97,.T.);
#95=LINE('',#34,#98);
#96=LINE('',#36,#99);
#97=LINE('',#38,#100);
#98=VECTOR('',#101,1.0);
#99=VECTOR('',#102,1.0);
#100=VECTOR('',#103,1.0);
#101=DIRECTION('',(0,0,1));
#102=DIRECTION('',(0,-0.6265560297508729,-0.7793763799236049));
#103=DIRECTION('',(0,0.9549353616493391,-0.29681383908376985));
#104=FACE_SURFACE('',(#109),#105,.T.);
#105=PLANE('',#106);
#106=AXIS2_PLACEMENT_3D('',#40,#107,#108);
#107=DIRECTION('',(1,-0,0));
#108=DIRECTION('',(0,0,-1));
#109=FACE_BOUND('',#110,.T.);
#110=EDGE_LOOP('',(#111,#112,#113));
#111=ORIENTED_EDGE('',*,*,#114,.T.);
#112=ORIENTED_EDGE('',*,*,#115,.T.);
#113=ORIENTED_EDGE('',*,*,#116,.T.);
#114=EDGE_CURVE('',#41,#39,#117,.F.);
#115=EDGE_CURVE('',#39,#37,#118,.T.);
#116=EDGE_CURVE('',#37,#41,#119,.T.);
#117=LINE('',#40,#120);
#118=LINE('',#38,#121);
#119=LINE('',#36,#122);
#120=VECTOR('',#123,1.0);
#121=VECTOR('',#124,1.0);
#122=VECTOR('',#125,1.0);
#123=DIRECTION('',(0,0,-1));
#124=DIRECTION('',(0,0.6265560297508729,0.7793763799236049));
#125=DIRECTION('',(0,-1,0));
#126=FACE_SURFACE('',(#131),#127,.T.);
#127=PLANE('',#128);
#128=AXIS2_PLACEMENT_3D('',#42,#129,#130);
#129=DIRECTION('',(1,-0,0));
#130=DIRECTION('',(0,0.9874213871960711,-0.15811073368935671));
#131=FACE_BOUND('',#132,.T.);
#132=EDGE_LOOP('',(#133,#134,#135));
#133=ORIENTED_EDGE('',*,*,#136,.T.);
#134=ORIENTED_EDGE('',*,*,#137,.T.);
#135=ORIENTED_EDGE('',*,*,#138,.T.);
#136=EDGE_CURVE('',#43,#45,#139,.F.);
#137=EDGE_CURVE('',#45,#47,#140,.T.);
#138=EDGE_CURVE('',#47,#43,#141,.T.);
#139=LINE('',#42,#142);
#140=LINE('',#44,#143);
#141=LINE('',#46,#144);
#142=VECTOR('',#145,1.0);
#143=VECTOR('',#146,1.0);
#144=VECTOR('',#147,1.0);
#145=DIRECTION('',(0,0.9874213871960711,-0.15811073368935671));
#146=DIRECTION('',(0,0,1));
#147=DIRECTION('',(0,-1,0));
#148=FACE_SURFACE('',(#153),#149,.T.);
#149=PLANE('',#150);
#150=AXIS2_PLACEMENT_3D('',#34,#151,#152);
#151=DIRECTION('',(1,0,0));
#152=DIRECTION('',(0,-0.9549353616493391,0.29681383908376985));
#153=FACE_BOUND('',#154,.T.);
#154=EDGE_LOOP('',(#155,#156,#157));
#155=ORIENTED_EDGE('',*,*,#158,.T.);
#156=ORIENTED_EDGE('',*,*,#159,.T.);
#157=ORIENTED_EDGE('',*,*,#160,.T.);
#158=EDGE_CURVE('',#35,#39,#161,.F.);
#159=EDGE_CURVE('',#39,#45,#162,.T.);
#160=EDGE_CURVE('',#45,#35,#163,.T.);
#161=LINE('',#34,#164);
#162=LINE('',#38,#165);
#163=LINE('',#44,#166);
#164=VECTOR('',#167,1.0);
#165=VECTOR('',#168,1.0);
#166=VECTOR('',#169,1.0);
#167=DIRECTION('',(0,-0.9549353616493391,0.29681383908376985));
#168=DIRECTION('',(0,-1,0));
#169=DIRECTION('',(0,0.979140091883551,-0.2031863195844424));
#170=FACE_SURFACE('',(#175),#171,.T.);
#171=PLANE('',#172);
#172=AXIS2_PLACEMENT_3D('',#42,#173,#174);
#173=DIRECTION('',(1,0,0));
#174=DIRECTION('',(0,0,-1));
#175=FACE_BOUND('',#176,.T.);
#176=EDGE_LOOP('',(#177,#178,#179));
#177=ORIENTED_EDGE('',*,*,#180,.T.);
#178=ORIENTED_EDGE('',*,*,#181,.T.);
#179=ORIENTED_EDGE('',*,*,#182,.T.);
#180=EDGE_CURVE('',#43,#49,#183,.F.);
#181=EDGE_CURVE('',#49,#45,#184,.T.);
#182=EDGE_CURVE('',#45,#43,#185,.T.);
#183=LINE('',#42,#186);
#184=LINE('',#48,#187);
#185=LINE('',#44,#188);
#186=VECTOR('',#189,1.0);
#187=VECTOR('',#190,1.0);
#188=VECTOR('',#191,1.0);
#189=DIRECTION('',(0,0,-1));
#190=DIRECTION('',(0,0.9992005113937564,0.03997921998308073));
#191=DIRECTION('',(0,-0.9874213871960711,0.15811073368935671));
#192=FACE_SURFACE('',(#197),#193,.T.);
#193=PLANE('',#194);
#194=AXIS2_PLACEMENT_3D('',#34,#195,#196);
#195=DIRECTION('',(1,0,0));
#196=DIRECTION('',(0,-0.979140091883551,0.2031863195844424));
#197=FACE_BOUND('',#198,.T.);
#198=EDGE_LOOP('',(#199,#200,#201));
#199=ORIENTED_EDGE('',*,*,#202,.T.);
#200=ORIENTED_EDGE('',*,*,#203,.T.);
#201=ORIENTED_EDGE('',*,*,#204,.T.);
#202=EDGE_CURVE('',#35,#45,#205,.F.);
#203=EDGE_CURVE('',#45,#49,#206,.T.);
#204=EDGE_CURVE('',#49,#35,#207,.T.);
#205=LINE('',#34,#208);
#206=LINE('',#44,#209);
#207=LINE('',#48,#210);
#208=VECTOR('',#211,1.0);
#209=VECTOR('',#212,1.0);
#210=VECTOR('',#213,1.0);
#211=DIRECTION('',(0,-0.979140091883551,0.2031863195844424));
#212=DIRECTION('',(0,-0.9992005113937564,-0.03997921998308073));
#213=DIRECTION('',(0,1,0));
#214=FACE_SURFACE('',(#219),#215,.T.);
#215=PLANE('',#216);
#216=AXIS2_PLACEMENT_3D('',#50,#217,#218);
#217=DIRECTION('',(-1,0,-0));
#218=DIRECTION('',(0,0,-1));
#219=FACE_BOUND('',#220,.T.);
#220=EDGE_LOOP('',(#221,#222,#223));
#221=ORIENTED_EDGE('',*,*,#224,.T.);
#222=ORIENTED_EDGE('',*,*,#225,.T.);
#223=ORIENTED_EDGE('',*,*,#226,.T.);
#224=EDGE_CURVE('',#51,#53,#227,.F.);
#225=EDGE_CURVE('',#53,#55,#228,.T.);
#226=EDGE_CURVE('',#55,#51,#229,.T.);
#227=LINE('',#50,#230);
#228=LINE('',#52,#231);
#229=LINE('',#54,#232);
#230=VECTOR('',#233,1.0);
#231=VECTOR('',#234,1.0);
#232=VECTOR('',#235,1.0);
#233=DIRECTION('',(0,0,-1));
#234=DIRECTION('',(0,-1,0));
#235=DIRECTION('',(0,0.9863727964146337,0.16452570161885255));
#236=FACE_SURFACE('',(#241),#237,.T.);
#237=PLANE('',#238);
#238=AXIS2_PLACEMENT_3D('',#50,#239,#240);
#239=DIRECTION('',(-1,-0,0));
#240=DIRECTION('',(0,-0.9863727964146337,-0.16452570161885255));
#241=FACE_BOUND('',#242,.T.);
#242=EDGE_LOOP('',(#243,#244,#245));
#243=ORIENTED_EDGE('',*,*,#246,.T.);
#244=ORIENTED_EDGE('',*,*,#247,.T.);
#245=ORIENTED_EDGE('',*,*,#248,.T.);
#246=EDGE_CURVE('',#51,#55,#249,.F.);
#247=EDGE_CURVE('',#55,#57,#250,.T.);
#248=EDGE_CURVE('',#57,#51,#251,.T.);
#249=LINE('',#50,#252);
#250=LINE('',#54,#253);
#251=LINE('',#56,#254);
#252=VECTOR('',#255,1.0);
#253=VECTOR('',#256,1.0);
#254=VECTOR('',#257,1.0);
#255=DIRECTION('',(0,-0.9863727964146337,-0.16452570161885255));
#256=DIRECTION('',(0,0,1));
#257=DIRECTION('',(0,1,0));
#258=FACE_SURFACE('',(#263),#259,.T.);
#259=PLANE('',#260);
#260=AXIS2_PLACEMENT_3D('',#58,#261,#262);
#261=DIRECTION('',(0,-1,0));
#262=DIRECTION('',(1,0,0));
#263=FACE_BOUND('',#264,.T.);
#264=EDGE_LOOP('',(#265,#266,#267));
#265=ORIENTED_EDGE('',*,*,#268,.T.);
#266=ORIENTED_EDGE('',*,*,#269,.T.);
#267=ORIENTED_EDGE('',*,*,#270,.T.);
#268=EDGE_CURVE('',#59,#39,#271,.F.);
#269=EDGE_CURVE('',#39,#41,#272,.T.);
#270=EDGE_CURVE('',#41,#59,#273,.T.);
#271=LINE('',#58,#274);
#272=LINE('',#38,#275);
#273=LINE('',#40,#276);
#274=VECTOR('',#277,1.0);
#275=VECTOR('',#278,1.0);
#276=VECTOR('',#279,1.0);
#277=DIRECTION('',(1,0,0));
#278=DIRECTION('',(0,0,1));
#279=DIRECTION('',(-0.2423755715428033,0,-0.9701824994913583));
#280=FACE_SURFACE('',(#285),#281,.T.);
#281=PLANE('',#282);
#282=AXIS2_PLACEMENT_3D('',#58,#283,#284);
#283=DIRECTION('',(0,-1,0));
#284=DIRECTION('',(0.2423755715428033,0,0.9701824994913583));
#285=FACE_BOUND('',#286,.T.);
#286=EDGE_LOOP('',(#287,#288,#289));
#287=ORIENTED_EDGE('',*,*,#290,.T.);
#288=ORIENTED_EDGE('',*,*,#291,.T.);
#289=ORIENTED_EDGE('',*,*,#292,.T.);
#290=EDGE_CURVE('',#59,#41,#293,.F.);
#291=EDGE_CURVE('',#41,#61,#294,.T.);
#292=EDGE_CURVE('',#61,#59,#295,.T.);
#293=LINE('',#58,#296);
#294=LINE('',#40,#297);
#295=LINE('',#60,#298);
#296=VECTOR('',#299,1.0);
#297=VECTOR('',#300,1.0);
#298=VECTOR('',#301,1.0);
#299=DIRECTION('',(0.2423755715428033,0,0.9701824994913583));
#300=DIRECTION('',(-1,0,0));
#301=DIRECTION('',(0,0,-1));
#302=FACE_SURFACE('',(#307),#303,.T.);
#303=PLANE('',#304);
#304=AXIS2_PLACEMENT_3D('',#56,#305,#306);
#305=DIRECTION('',(0,1,0));
#306=DIRECTION('',(0,0,-1));
#307=FACE_BOUND('',#308,.T.);
#308=EDGE_LOOP('',(#309,#310,#311));
#309=ORIENTED_EDGE('',*,*,#312,.T.);
#310=ORIENTED_EDGE('',*,*,#313,.T.);
#311=ORIENTED_EDGE('',*,*,#314,.T.);
#312=EDGE_CURVE('',#57,#55,#315,.F.);
#313=EDGE_CURVE('',#55,#63,#316,.T.);
#314=EDGE_CURVE('',#63,#57,#317,.T.);
#315=LINE('',#56,#318);
#316=LINE('',#54,#319);
#317=LINE('',#62,#320);
#318=VECTOR('',#321,1.0);
#319=VECTOR('',#322,1.0);
#320=VECTOR('',#323,1.0);
#321=DIRECTION('',(0,0,-1));
#322=DIRECTION('',(-1,0,0));
#323=DIRECTION('',(0.9984600973080089,0,0.055474625583969824));
#324=FACE_SURFACE('',(#329),#325,.T.);
#325=PLANE('',#326);
#326=AXIS2_PLACEMENT_3D('',#56,#327,#328);
#327=DIRECTION('',(0,1,0));
#328=DIRECTION('',(-0.9984600973080089,0,-0.055474625583969824));
#329=FACE_BOUND('',#330,.T.);
#330=EDGE_LOOP('',(#331,#332,#333));
#331=ORIENTED_EDGE('',*,*,#334,.T.);
#332=ORIENTED_EDGE('',*,*,#335,.T.);
#333=ORIENTED_EDGE('',*,*,#336,.T.);
#334=EDGE_CURVE('',#57,#63,#337,.F.);
#335=EDGE_CURVE('',#63,#65,#338,.T.);
#336=EDGE_CURVE('',#65,#57,#339,.T.);
#337=LINE('',#56,#340);
#338=LINE('',#62,#341);
#339=LINE('',#64,#342);
#340=VECTOR('',#343,1.0);
#341=VECTOR('',#344,1.0);
#342=VECTOR('',#345,1.0);
#343=DIRECTION('',(-0.9984600973080089,0,-0.055474625583969824));
#344=DIRECTION('',(0,0,1));
#345=DIRECTION('',(1,0,0));
#346=FACE_SURFACE('',(#351),#347,.T.);
#347=PLANE('',#348);
#348=AXIS2_PLACEMENT_3D('',#46,#349,#350);
#349=DIRECTION('',(0,1,0));
#350=DIRECTION('',(0,0,-1));
#351=FACE_BOUND('',#352,.T.);
#352=EDGE_LOOP('',(#353,#354,#355));
#353=ORIENTED_EDGE('',*,*,#356,.T.);
#354=ORIENTED_EDGE('',*,*,#357,.T.);
#355=ORIENTED_EDGE('',*,*,#358,.T.);
#356=EDGE_CURVE('',#47,#45,#359,.F.);
#357=EDGE_CURVE('',#45,#53,#360,.T.);
#358=EDGE_CURVE('',#53,#47,#361,.T.);
#359=LINE('',#46,#362);
#360=LINE('',#44,#363);
#361=LINE('',#52,#364);
#362=VECTOR('',#365,1.0);
#363=VECTOR('',#366,1.0);
#364=VECTOR('',#367,1.0);
#365=DIRECTION('',(0,0,-1));
#366=DIRECTION('',(-1,0,0));
#367=DIRECTION('',(0.2423755715428033,0,0.9701824994913583));
#368=FACE_SURFACE('',(#373),#369,.T.);
#369=PLANE('',#370);
#370=AXIS2_PLACEMENT_3D('',#46,#371,#372);
#371=DIRECTION('',(0,1,0));
#372=DIRECTION('',(-0.2423755715428033,0,-0.9701824994913583));
#373=FACE_BOUND('',#374,.T.);
#374=EDGE_LOOP('',(#375,#376,#377));
#375=ORIENTED_EDGE('',*,*,#378,.T.);
#376=ORIENTED_EDGE('',*,*,#379,.T.);
#377=ORIENTED_EDGE('',*,*,#380,.T.);
#378=EDGE_CURVE('',#47,#53,#381,.F.);
#379=EDGE_CURVE('',#53,#51,#382,.T.);
#380=EDGE_CURVE('',#51,#47,#383,.T.);
#381=LINE('',#46,#384);
#382=LINE('',#52,#385);
#383=LINE('',#50,#386);
#384=VECTOR('',#387,1.0);
#385=VECTOR('',#388,1.0);
#386=VECTOR('',#389,1.0);
#387=DIRECTION('',(-0.2423755715428033,0,-0.9701824994913583));
#388=DIRECTION('',(0,0,1));
#389=DIRECTION('',(1,0,0));
#390=FACE_SURFACE('',(#395),#391,.T.);
#391=PLANE('',#392);
#392=AXIS2_PLACEMENT_3D('',#52,#393,#394);
#393=DIRECTION('',(0,0,1));
#394=DIRECTION('',(1,0,0));
#395=FACE_BOUND('',#396,.T.);
#396=EDGE_LOOP('',(#397,#398,#399));
#397=ORIENTED_EDGE('',*,*,#400,.T.);
#398=ORIENTED_EDGE('',*,*,#401,.T.);
#399=ORIENTED_EDGE('',*,*,#402,.T.);
#400=EDGE_CURVE('',#53,#45,#403,.F.);
#401=EDGE_CURVE('',#45,#39,#404,.T.);
#402=EDGE_CURVE('',#39,#53,#405,.T.);
#403=LINE('',#52,#406);
#404=LINE('',#44,#407);
#405=LINE('',#38,#408);
#406=VECTOR('',#409,1.0);
#407=VECTOR('',#410,1.0);
#408=VECTOR('',#411,1.0);
#409=DIRECTION('',(1,0,0));
#410=DIRECTION('',(0,1,0));
#411=DIRECTION('',(-0.529531790052424,-0.848290093849902,0));
#412=FACE_SURFACE('',(#417),#413,.T.);
#413=PLANE('',#414);
#414=AXIS2_PLACEMENT_3D('',#52,#415,#416);
#415=DIRECTION('',(0,0,1));
#416=DIRECTION('',(0.529531790052424,0.848290093849902,0));
#417=FACE_BOUND('',#418,.T.);
#418=EDGE_LOOP('',(#419,#420,#421));
#419=ORIENTED_EDGE('',*,*,#422,.T.);
#420=ORIENTED_EDGE('',*,*,#423,.T.);
#421=ORIENTED_EDGE('',*,*,#424,.T.);
#422=EDGE_CURVE('',#53,#39,#425,.F.);
#423=EDGE_CURVE('',#39,#59,#426,.T.);
#424=EDGE_CURVE('',#59,#53,#427,.T.);
#425=LINE('',#52,#428);
#426=LINE('',#38,#429);
#427=LINE('',#58,#430);
#428=VECTOR('',#431,1.0);
#429=VECTOR('',#432,1.0);
#430=VECTOR('',#433,1.0);
#431=DIRECTION('',(0.529531790052424,0.848290093849902,0));
#432=DIRECTION('',(-1,0,0));
#433=DIRECTION('',(0,-1,0));
#434=FACE_SURFACE('',(#439),#435,.T.);
#435=PLANE('',#436);
#436=AXIS2_PLACEMENT_3D('',#62,#437,#438);
#437=DIRECTION('',(0,0,1));
#438=DIRECTION('',(1,0,0));
#439=FACE_BOUND('',#440,.T.);
#440=EDGE_LOOP('',(#441,#442,#443));
#441=ORIENTED_EDGE('',*,*,#444,.T.);
#442=ORIENTED_EDGE('',*,*,#445,.T.);
#443=ORIENTED_EDGE('',*,*,#446,.T.);
#444=EDGE_CURVE('',#63,#55,#447,.F.);
#445=EDGE_CURVE('',#55,#53,#448,.T.);
#446=EDGE_CURVE('',#53,#63,#449,.T.);
#447=LINE('',#62,#450);
#448=LINE('',#54,#451);
#449=LINE('',#52,#452);
#450=VECTOR('',#453,1.0);
#451=VECTOR('',#454,1.0);
#452=VECTOR('',#455,1.0);
#453=DIRECTION('',(1,0,0));
#454=DIRECTION('',(0,1,0));
#455=DIRECTION('',(-0.9487504819609092,-0.3160261428726153,0));
#456=FACE_SURFACE('',(#461),#457,.T.);
#457=PLANE('',#458);
#458=AXIS2_PLACEMENT_3D('',#58,#459,#460);
#459=DIRECTION('',(0,0,1));
#460=DIRECTION('',(-0.9995264600657813,0.030771019293615875,0));
#461=FACE_BOUND('',#462,.T.);
#462=EDGE_LOOP('',(#463,#464,#465));
#463=ORIENTED_EDGE('',*,*,#466,.T.);
#464=ORIENTED_EDGE('',*,*,#467,.T.);
#465=ORIENTED_EDGE('',*,*,#468,.T.);
#466=EDGE_CURVE('',#59,#67,#469,.F.);
#467=EDGE_CURVE('',#67,#53,#470,.T.);
#468=EDGE_CURVE('',#53,#59,#471,.T.);
#469=LINE('',#58,#472);
#470=LINE('',#66,#473);
#471=LINE('',#52,#474);
#472=VECTOR('',#475,1.0);
#473=VECTOR('',#476,1.0);
#474=VECTOR('',#477,1.0);
#475=DIRECTION('',(-0.9995264600657813,0.030771019293615875,0));
#476=DIRECTION('',(0.9985973260714593,-0.052946958013956734,0));
#477=DIRECTION('',(0,1,0));
#478=FACE_SURFACE('',(#483),#479,.T.);
#479=PLANE('',#480);
#480=AXIS2_PLACEMENT_3D('',#68,#481,#482);
#481=DIRECTION('',(0,0,1));
#482=DIRECTION('',(-1,0,0));
#483=FACE_BOUND('',#484,.T.);
#484=EDGE_LOOP('',(#485,#486,#487));
#485=ORIENTED_EDGE('',*,*,#488,.T.);
#486=ORIENTED_EDGE('',*,*,#489,.T.);
#487=ORIENTED_EDGE('',*,*,#490,.T.);
#488=EDGE_CURVE('',#69,#67,#491,.F.);
#489=EDGE_CURVE('',#67,#59,#492,.T.);
#490=EDGE_CURVE('',#59,#69,#493,.T.);
#491=LINE('',#68,#494);
#492=LINE('',#66,#495);
#493=LINE('',#58,#496);
#494=VECTOR('',#497,1.0);
#495=VECTOR('',#498,1.0);
#496=VECTOR('',#499,1.0);
#497=DIRECTION('',(-1,0,0));
#498=DIRECTION('',(0.9995264600657813,-0.030771019293615875,0));
#499=DIRECTION('',(0,1,0));
#500=FACE_SURFACE('',(#505),#501,.T.);
#501=PLANE('',#502);
#502=AXIS2_PLACEMENT_3D('',#62,#503,#504);
#503=DIRECTION('',(0,0,1));
#504=DIRECTION('',(0.9487504819609092,0.3160261428726153,0));
#505=FACE_BOUND('',#506,.T.);
#506=EDGE_LOOP('',(#507,#508,#509));
#507=ORIENTED_EDGE('',*,*,#510,.T.);
#508=ORIENTED_EDGE('',*,*,#511,.T.);
#509=ORIENTED_EDGE('',*,*,#512,.T.);
#510=EDGE_CURVE('',#63,#53,#513,.F.);
#511=EDGE_CURVE('',#53,#67,#514,.T.);
#512=EDGE_CURVE('',#67,#63,#515,.T.);
#513=LINE('',#62,#516);
#514=LINE('',#52,#517);
#515=LINE('',#66,#518);
#516=VECTOR('',#519,1.0);
#517=VECTOR('',#520,1.0);
#518=VECTOR('',#521,1.0);
#519=DIRECTION('',(0.9487504819609092,0.3160261428726153,0));
#520=DIRECTION('',(-0.9985973260714593,0.052946958013956734,0));
#521=DIRECTION('',(0,-1,0));
#522=FACE_SURFACE('',(#527),#523,.T.);
#523=PLANE('',#524);
#524=AXIS2_PLACEMENT_3D('',#66,#525,#526);
#525=DIRECTION('',(1,0,-0));
#526=DIRECTION('',(0,0,1));
#527=FACE_BOUND('',#528,.T.);
#528=EDGE_LOOP('',(#529,#530,#531));
#529=ORIENTED_EDGE('',*,*,#532,.T.);
#530=ORIENTED_EDGE('',*,*,#533,.T.);
#531=ORIENTED_EDGE('',*,*,#534,.T.);
#532=EDGE_CURVE('',#67,#71,#535,.F.);
#533=EDGE_CURVE('',#71,#65,#536,.T.);
#534=EDGE_CURVE('',#65,#67,#537,.T.);
#535=LINE('',#66,#538);
#536=LINE('',#70,#539);
#537=LINE('',#64,#540);
#538=VECTOR('',#541,1.0);
#539=VECTOR('',#542,1.0);
#540=VECTOR('',#543,1.0);
#541=DIRECTION('',(0,0,1));
#542=DIRECTION('',(0,-1,0));
#543=DIRECTION('',(0,0.9898052877738994,-0.1424271473239142));
#544=FACE_SURFACE('',(#549),#545,.T.);
#545=PLANE('',#546);
#546=AXIS2_PLACEMENT_3D('',#66,#547,#548);
#547=DIRECTION('',(1,0,0));
#548=DIRECTION('',(0,-0.9898052877738994,0.1424271473239142));
#549=FACE_BOUND('',#550,.T.);
#550=EDGE_LOOP('',(#551,#552,#553));
#551=ORIENTED_EDGE('',*,*,#554,.T.);
#552=ORIENTED_EDGE('',*,*,#555,.T.);
#553=ORIENTED_EDGE('',*,*,#556,.T.);
#554=EDGE_CURVE('',#67,#65,#557,.F.);
#555=EDGE_CURVE('',#65,#63,#558,.T.);
#556=EDGE_CURVE('',#63,#67,#559,.T.);
#557=LINE('',#66,#560);
#558=LINE('',#64,#561);
#559=LINE('',#62,#562);
#560=VECTOR('',#563,1.0);
#561=VECTOR('',#564,1.0);
#562=VECTOR('',#565,1.0);
#563=DIRECTION('',(0,-0.9898052877738994,0.1424271473239142));
#564=DIRECTION('',(0,0,-1));
#565=DIRECTION('',(0,1,0));
#566=FACE_SURFACE('',(#571),#567,.T.);
#567=PLANE('',#568);
#568=AXIS2_PLACEMENT_3D('',#70,#569,#570);
#569=DIRECTION('',(0,-1,0));
#570=DIRECTION('',(0,0,-1));
#571=FACE_BOUND('',#572,.T.);
#572=EDGE_LOOP('',(#573,#574,#575));
#573=ORIENTED_EDGE('',*,*,#576,.T.);
#574=ORIENTED_EDGE('',*,*,#577,.T.);
#575=ORIENTED_EDGE('',*,*,#578,.T.);
#576=EDGE_CURVE('',#71,#67,#579,.F.);
#577=EDGE_CURVE('',#67,#69,#580,.T.);
#578=EDGE_CURVE('',#69,#71,#581,.T.);
#579=LINE('',#70,#582);
#580=LINE('',#66,#583);
#581=LINE('',#68,#584);
#582=VECTOR('',#585,1.0);
#583=VECTOR('',#586,1.0);
#584=VECTOR('',#587,1.0);
#585=DIRECTION('',(0,0,-1));
#586=DIRECTION('',(1,0,0));
#587=DIRECTION('',(-0.9984600973080089,0,0.055474625583969824));
#588=FACE_SURFACE('',(#593),#589,.T.);
#589=PLANE('',#590);
#590=AXIS2_PLACEMENT_3D('',#70,#591,#592);
#591=DIRECTION('',(0,-1,0));
#592=DIRECTION('',(0.9984600973080089,0,-0.055474625583969824));
#593=FACE_BOUND('',#594,.T.);
#594=EDGE_LOOP('',(#595,#596,#597));
#595=ORIENTED_EDGE('',*,*,#598,.T.);
#596=ORIENTED_EDGE('',*,*,#599,.T.);
#597=ORIENTED_EDGE('',*,*,#600,.T.);
#598=EDGE_CURVE('',#71,#69,#601,.F.);
#599=EDGE_CURVE('',#69,#73,#602,.T.);
#600=EDGE_CURVE('',#73,#71,#603,.T.);
#601=LINE('',#70,#604);
#602=LINE('',#68,#605);
#603=LINE('',#72,#606);
#604=VECTOR('',#607,1.0);
#605=VECTOR('',#608,1.0);
#606=VECTOR('',#609,1.0);
#607=DIRECTION('',(0.9984600973080089,0,-0.055474625583969824));
#608=DIRECTION('',(0,0,1));
#609=DIRECTION('',(-1,0,0));
#610=FACE_SURFACE('',(#615),#611,.T.);
#611=PLANE('',#612);
#612=AXIS2_PLACEMENT_3D('',#68,#613,#614);
#613=DIRECTION('',(-1,0,0));
#614=DIRECTION('',(0,-1,0));
#615=FACE_BOUND('',#616,.T.);
#616=EDGE_LOOP('',(#617,#618,#619));
#617=ORIENTED_EDGE('',*,*,#620,.T.);
#618=ORIENTED_EDGE('',*,*,#621,.T.);
#619=ORIENTED_EDGE('',*,*,#622,.T.);
#620=EDGE_CURVE('',#69,#59,#623,.F.);
#621=EDGE_CURVE('',#59,#61,#624,.T.);
#622=EDGE_CURVE('',#61,#69,#625,.T.);
#623=LINE('',#68,#626);
#624=LINE('',#58,#627);
#625=LINE('',#60,#628);
#626=VECTOR('',#629,1.0);
#627=VECTOR('',#630,1.0);
#628=VECTOR('',#631,1.0);
#629=DIRECTION('',(0,-1,0));
#630=DIRECTION('',(0,0,1));
#631=DIRECTION('',(0,0.48466612467849585,-0.8746992326446439));
#632=FACE_SURFACE('',(#637),#633,.T.);
#633=PLANE('',#634);
#634=AXIS2_PLACEMENT_3D('',#68,#635,#636);
#635=DIRECTION('',(-1,0,0));
#636=DIRECTION('',(0,-0.48466612467849585,0.8746992326446439));
#637=FACE_BOUND('',#638,.T.);
#638=EDGE_LOOP('',(#639,#640,#641));
#639=ORIENTED_EDGE('',*,*,#642,.T.);
#640=ORIENTED_EDGE('',*,*,#643,.T.);
#641=ORIENTED_EDGE('',*,*,#644,.T.);
#642=EDGE_CURVE('',#69,#61,#645,.F.);
#643=EDGE_CURVE('',#61,#73,#646,.T.);
#644=EDGE_CURVE('',#73,#69,#647,.T.);
#645=LINE('',#68,#648);
#646=LINE('',#60,#649);
#647=LINE('',#72,#650);
#648=VECTOR('',#651,1.0);
#649=VECTOR('',#652,1.0);
#650=VECTOR('',#653,1.0);
#651=DIRECTION('',(0,-0.48466612467849585,0.8746992326446439));
#652=DIRECTION('',(0,1,0));
#653=DIRECTION('',(0,0,-1));
#654=FACE_SURFACE('',(#659),#655,.T.);
#655=PLANE('',#656);
#656=AXIS2_PLACEMENT_3D('',#60,#657,#658);
#657=DIRECTION('',(0,0,1));
#658=DIRECTION('',(1,0,0));
#659=FACE_BOUND('',#660,.T.);
#660=EDGE_LOOP('',(#661,#662,#663));
#661=ORIENTED_EDGE('',*,*,#664,.T.);
#662=ORIENTED_EDGE('',*,*,#665,.T.);
#663=ORIENTED_EDGE('',*,*,#666,.T.);
#664=EDGE_CURVE('',#61,#41,#667,.F.);
#665=EDGE_CURVE('',#41,#73,#668,.T.);
#666=EDGE_CURVE('',#73,#61,#669,.T.);
#667=LINE('',#60,#670);
#668=LINE('',#40,#671);
#669=LINE('',#72,#672);
#670=VECTOR('',#673,1.0);
#671=VECTOR('',#674,1.0);
#672=VECTOR('',#675,1.0);
#673=DIRECTION('',(1,0,0));
#674=DIRECTION('',(-0.41102424165263485,0.9116244143142922,0));
#675=DIRECTION('',(0,-1,0));
#676=FACE_SURFACE('',(#681),#677,.T.);
#677=PLANE('',#678);
#678=AXIS2_PLACEMENT_3D('',#36,#679,#680);
#679=DIRECTION('',(0,0,1));
#680=DIRECTION('',(-0.7071062413825644,-0.7071073209901186,0));
#681=FACE_BOUND('',#682,.T.);
#682=EDGE_LOOP('',(#683,#684,#685));
#683=ORIENTED_EDGE('',*,*,#686,.T.);
#684=ORIENTED_EDGE('',*,*,#687,.T.);
#685=ORIENTED_EDGE('',*,*,#688,.T.);
#686=EDGE_CURVE('',#37,#73,#689,.F.);
#687=EDGE_CURVE('',#73,#41,#690,.T.);
#688=EDGE_CURVE('',#41,#37,#691,.T.);
#689=LINE('',#36,#692);
#690=LINE('',#72,#693);
#691=LINE('',#40,#694);
#692=VECTOR('',#695,1.0);
#693=VECTOR('',#696,1.0);
#694=VECTOR('',#697,1.0);
#695=DIRECTION('',(-0.7071062413825644,-0.7071073209901186,0));
#696=DIRECTION('',(0.41102424165263485,-0.9116244143142922,0));
#697=DIRECTION('',(0,1,0));
#698=FACE_SURFACE('',(#703),#699,.T.);
#699=PLANE('',#700);
#700=AXIS2_PLACEMENT_3D('',#46,#701,#702);
#701=DIRECTION('',(0,0,1));
#702=DIRECTION('',(-1,0,0));
#703=FACE_BOUND('',#704,.T.);
#704=EDGE_LOOP('',(#705,#706,#707));
#705=ORIENTED_EDGE('',*,*,#708,.T.);
#706=ORIENTED_EDGE('',*,*,#709,.T.);
#707=ORIENTED_EDGE('',*,*,#710,.T.);
#708=EDGE_CURVE('',#47,#51,#711,.F.);
#709=EDGE_CURVE('',#51,#57,#712,.T.);
#710=EDGE_CURVE('',#57,#47,#713,.T.);
#711=LINE('',#46,#714);
#712=LINE('',#50,#715);
#713=LINE('',#56,#716);
#714=VECTOR('',#717,1.0);
#715=VECTOR('',#718,1.0);
#716=VECTOR('',#719,1.0);
#717=DIRECTION('',(-1,0,0));
#718=DIRECTION('',(0,-1,0));
#719=DIRECTION('',(0.04163430718075237,0.9991329163157316,0));
#720=FACE_SURFACE('',(#725),#721,.T.);
#721=PLANE('',#722);
#722=AXIS2_PLACEMENT_3D('',#46,#723,#724);
#723=DIRECTION('',(0,0,1));
#724=DIRECTION('',(-0.04163430718075237,-0.9991329163157316,0));
#725=FACE_BOUND('',#726,.T.);
#726=EDGE_LOOP('',(#727,#728,#729));
#727=ORIENTED_EDGE('',*,*,#730,.T.);
#728=ORIENTED_EDGE('',*,*,#731,.T.);
#729=ORIENTED_EDGE('',*,*,#732,.T.);
#730=EDGE_CURVE('',#47,#57,#733,.F.);
#731=EDGE_CURVE('',#57,#43,#734,.T.);
#732=EDGE_CURVE('',#43,#47,#735,.T.);
#733=LINE('',#46,#736);
#734=LINE('',#56,#737);
#735=LINE('',#42,#738);
#736=VECTOR('',#739,1.0);
#737=VECTOR('',#740,1.0);
#738=VECTOR('',#741,1.0);
#739=DIRECTION('',(-0.04163430718075237,-0.9991329163157316,0));
#740=DIRECTION('',(0.707035530624023,-0.7071780245703384,0));
#741=DIRECTION('',(0,1,0));
#742=FACE_SURFACE('',(#747),#743,.T.);
#743=PLANE('',#744);
#744=AXIS2_PLACEMENT_3D('',#74,#745,#746);
#745=DIRECTION('',(0,0,-1));
#746=DIRECTION('',(1,0,0));
#747=FACE_BOUND('',#748,.T.);
#748=EDGE_LOOP('',(#749,#750,#751));
#749=ORIENTED_EDGE('',*,*,#752,.T.);
#750=ORIENTED_EDGE('',*,*,#753,.T.);
#751=ORIENTED_EDGE('',*,*,#754,.T.);
#752=EDGE_CURVE('',#75,#35,#755,.F.);
#753=EDGE_CURVE('',#35,#77,#756,.T.);
#754=EDGE_CURVE('',#77,#75,#757,.T.);
#755=LINE('',#74,#758);
#756=LINE('',#34,#759);
#757=LINE('',#76,#760);
#758=VECTOR('',#761,1.0);
#759=VECTOR('',#762,1.0);
#760=VECTOR('',#763,1.0);
#761=DIRECTION('',(1,0,0));
#762=DIRECTION('',(-0.9276096743696868,-0.37355092292184683,0));
#763=DIRECTION('',(0,1,0));
#764=FACE_SURFACE('',(#769),#765,.T.);
#765=PLANE('',#766);
#766=AXIS2_PLACEMENT_3D('',#48,#767,#768);
#767=DIRECTION('',(0,0,-1));
#768=DIRECTION('',(-1,0,0));
#769=FACE_BOUND('',#770,.T.);
#770=EDGE_LOOP('',(#771,#772,#773));
#771=ORIENTED_EDGE('',*,*,#774,.T.);
#772=ORIENTED_EDGE('',*,*,#775,.T.);
#773=ORIENTED_EDGE('',*,*,#776,.T.);
#774=EDGE_CURVE('',#49,#77,#777,.F.);
#775=EDGE_CURVE('',#77,#35,#778,.T.);
#776=EDGE_CURVE('',#35,#49,#779,.T.);
#777=LINE('',#48,#780);
#778=LINE('',#76,#781);
#779=LINE('',#34,#782);
#780=VECTOR('',#783,1.0);
#781=VECTOR('',#784,1.0);
#782=VECTOR('',#785,1.0);
#783=DIRECTION('',(-1,0,0));
#784=DIRECTION('',(0.9276096743696868,0.37355092292184683,0));
#785=DIRECTION('',(0,-1,0));
#786=FACE_SURFACE('',(#791),#787,.T.);
#787=PLANE('',#788);
#788=AXIS2_PLACEMENT_3D('',#78,#789,#790);
#789=DIRECTION('',(-1,0,-0));
#790=DIRECTION('',(0,0,-1));
#791=FACE_BOUND('',#792,.T.);
#792=EDGE_LOOP('',(#793,#794,#795));
#793=ORIENTED_EDGE('',*,*,#796,.T.);
#794=ORIENTED_EDGE('',*,*,#797,.T.);
#795=ORIENTED_EDGE('',*,*,#798,.T.);
#796=EDGE_CURVE('',#79,#75,#799,.F.);
#797=EDGE_CURVE('',#75,#77,#800,.T.);
#798=EDGE_CURVE('',#77,#79,#801,.T.);
#799=LINE('',#78,#802);
#800=LINE('',#74,#803);
#801=LINE('',#76,#804);
#802=VECTOR('',#805,1.0);
#803=VECTOR('',#806,1.0);
#804=VECTOR('',#807,1.0);
#805=DIRECTION('',(0,0,-1));
#806=DIRECTION('',(0,-1,0));
#807=DIRECTION('',(0,0.9862144509741582,0.16547222331781175));
#808=FACE_SURFACE('',(#813),#809,.T.);
#809=PLANE('',#810);
#810=AXIS2_PLACEMENT_3D('',#78,#811,#812);
#811=DIRECTION('',(-1,-0,0));
#812=DIRECTION('',(0,-0.9862144509741582,-0.16547222331781175));
#813=FACE_BOUND('',#814,.T.);
#814=EDGE_LOOP('',(#815,#816,#817));
#815=ORIENTED_EDGE('',*,*,#818,.T.);
#816=ORIENTED_EDGE('',*,*,#819,.T.);
#817=ORIENTED_EDGE('',*,*,#820,.T.);
#818=EDGE_CURVE('',#79,#77,#821,.F.);
#819=EDGE_CURVE('',#77,#81,#822,.T.);
#820=EDGE_CURVE('',#81,#79,#823,.T.);
#821=LINE('',#78,#824);
#822=LINE('',#76,#825);
#823=LINE('',#80,#826);
#824=VECTOR('',#827,1.0);
#825=VECTOR('',#828,1.0);
#826=VECTOR('',#829,1.0);
#827=DIRECTION('',(0,-0.9862144509741582,-0.16547222331781175));
#828=DIRECTION('',(0,0,1));
#829=DIRECTION('',(0,1,0));
#830=FACE_SURFACE('',(#835),#831,.T.);
#831=PLANE('',#832);
#832=AXIS2_PLACEMENT_3D('',#70,#833,#834);
#833=DIRECTION('',(0,0,1));
#834=DIRECTION('',(1,0,0));
#835=FACE_BOUND('',#836,.T.);
#836=EDGE_LOOP('',(#837,#838,#839));
#837=ORIENTED_EDGE('',*,*,#840,.T.);
#838=ORIENTED_EDGE('',*,*,#841,.T.);
#839=ORIENTED_EDGE('',*,*,#842,.T.);
#840=EDGE_CURVE('',#71,#73,#843,.F.);
#841=EDGE_CURVE('',#73,#37,#844,.T.);
#842=EDGE_CURVE('',#37,#71,#845,.T.);
#843=LINE('',#70,#846);
#844=LINE('',#72,#847);
#845=LINE('',#36,#848);
#846=VECTOR('',#849,1.0);
#847=VECTOR('',#850,1.0);
#848=VECTOR('',#851,1.0);
#849=DIRECTION('',(1,0,0));
#850=DIRECTION('',(0.7071062413825644,0.7071073209901186,0));
#851=DIRECTION('',(-0.999906300976535,-0.013689019958450831,0));
#852=FACE_SURFACE('',(#857),#853,.T.);
#853=PLANE('',#854);
#854=AXIS2_PLACEMENT_3D('',#42,#855,#856);
#855=DIRECTION('',(0,0,1));
#856=DIRECTION('',(-0.707035530624023,0.7071780245703384,0));
#857=FACE_BOUND('',#858,.T.);
#858=EDGE_LOOP('',(#859,#860,#861));
#859=ORIENTED_EDGE('',*,*,#862,.T.);
#860=ORIENTED_EDGE('',*,*,#863,.T.);
#861=ORIENTED_EDGE('',*,*,#864,.T.);
#862=EDGE_CURVE('',#43,#57,#865,.F.);
#863=EDGE_CURVE('',#57,#65,#866,.T.);
#864=EDGE_CURVE('',#65,#43,#867,.T.);
#865=LINE('',#42,#868);
#866=LINE('',#56,#869);
#867=LINE('',#64,#870);
#868=VECTOR('',#871,1.0);
#869=VECTOR('',#872,1.0);
#870=VECTOR('',#873,1.0);
#871=DIRECTION('',(-0.707035530624023,0.7071780245703384,0));
#872=DIRECTION('',(-1,0,0));
#873=DIRECTION('',(0.9999062634965593,-0.013691757387169793,0));
#874=FACE_SURFACE('',(#879),#875,.T.);
#875=PLANE('',#876);
#876=AXIS2_PLACEMENT_3D('',#42,#877,#878);
#877=DIRECTION('',(0,0,1));
#878=DIRECTION('',(-0.9999062634965593,0.013691757387169793,0));
#879=FACE_BOUND('',#880,.T.);
#880=EDGE_LOOP('',(#881,#882,#883));
#881=ORIENTED_EDGE('',*,*,#884,.T.);
#882=ORIENTED_EDGE('',*,*,#885,.T.);
#883=ORIENTED_EDGE('',*,*,#886,.T.);
#884=EDGE_CURVE('',#43,#65,#887,.F.);
#885=EDGE_CURVE('',#65,#81,#888,.T.);
#886=EDGE_CURVE('',#81,#43,#889,.T.);
#887=LINE('',#42,#890);
#888=LINE('',#64,#891);
#889=LINE('',#80,#892);
#890=VECTOR('',#893,1.0);
#891=VECTOR('',#894,1.0);
#892=VECTOR('',#895,1.0);
#893=DIRECTION('',(-0.9999062634965593,0.013691757387169793,0));
#894=DIRECTION('',(-0.707035530624023,-0.7071780245703384,0));
#895=DIRECTION('',(1,0,0));
#896=FACE_SURFACE('',(#901),#897,.T.);
#897=PLANE('',#898);
#898=AXIS2_PLACEMENT_3D('',#70,#899,#900);
#899=DIRECTION('',(0,0,1));
#900=DIRECTION('',(-0.7071062413825644,0.7071073209901186,0));
#901=FACE_BOUND('',#902,.T.);
#902=EDGE_LOOP('',(#903,#904,#905));
#903=ORIENTED_EDGE('',*,*,#906,.T.);
#904=ORIENTED_EDGE('',*,*,#907,.T.);
#905=ORIENTED_EDGE('',*,*,#908,.T.);
#906=EDGE_CURVE('',#71,#79,#909,.F.);
#907=EDGE_CURVE('',#79,#65,#910,.T.);
#908=EDGE_CURVE('',#65,#71,#911,.T.);
#909=LINE('',#70,#912);
#910=LINE('',#78,#913);
#911=LINE('',#64,#914);
#912=VECTOR('',#915,1.0);
#913=VECTOR('',#916,1.0);
#914=VECTOR('',#917,1.0);
#915=DIRECTION('',(-0.7071062413825644,0.7071073209901186,0));
#916=DIRECTION('',(0.034679991983704764,-0.9993984681577264,0));
#917=DIRECTION('',(0,1,0));
#918=FACE_SURFACE('',(#923),#919,.T.);
#919=PLANE('',#920);
#920=AXIS2_PLACEMENT_3D('',#36,#921,#922);
#921=DIRECTION('',(0,0,1));
#922=DIRECTION('',(-1,0,0));
#923=FACE_BOUND('',#924,.T.);
#924=EDGE_LOOP('',(#925,#926,#927));
#925=ORIENTED_EDGE('',*,*,#928,.T.);
#926=ORIENTED_EDGE('',*,*,#929,.T.);
#927=ORIENTED_EDGE('',*,*,#930,.T.);
#928=EDGE_CURVE('',#37,#79,#931,.F.);
#929=EDGE_CURVE('',#79,#71,#932,.T.);
#930=EDGE_CURVE('',#71,#37,#933,.T.);
#931=LINE('',#36,#934);
#932=LINE('',#78,#935);
#933=LINE('',#70,#936);
#934=VECTOR('',#937,1.0);
#935=VECTOR('',#938,1.0);
#936=VECTOR('',#939,1.0);
#937=DIRECTION('',(-1,0,0));
#938=DIRECTION('',(0.7071062413825644,-0.7071073209901186,0));
#939=DIRECTION('',(0.999906300976535,0.013689019958450831,0));
#940=FACE_SURFACE('',(#945),#941,.T.);
#941=PLANE('',#942);
#942=AXIS2_PLACEMENT_3D('',#80,#943,#944);
#943=DIRECTION('',(0,0,1));
#944=DIRECTION('',(0.707035530624023,0.7071780245703384,0));
#945=FACE_BOUND('',#946,.T.);
#946=EDGE_LOOP('',(#947,#948,#949));
#947=ORIENTED_EDGE('',*,*,#950,.T.);
#948=ORIENTED_EDGE('',*,*,#951,.T.);
#949=ORIENTED_EDGE('',*,*,#952,.T.);
#950=EDGE_CURVE('',#81,#65,#953,.F.);
#951=EDGE_CURVE('',#65,#79,#954,.T.);
#952=EDGE_CURVE('',#79,#81,#955,.T.);
#953=LINE('',#80,#956);
#954=LINE('',#64,#957);
#955=LINE('',#78,#958);
#956=VECTOR('',#959,1.0);
#957=VECTOR('',#960,1.0);
#958=VECTOR('',#961,1.0);
#959=DIRECTION('',(0.707035530624023,0.7071780245703384,0));
#960=DIRECTION('',(-0.034679991983704764,0.9993984681577264,0));
#961=DIRECTION('',(0,-1,0));
#962=FACE_SURFACE('',(#967),#963,.T.);
#963=PLANE('',#964);
#964=AXIS2_PLACEMENT_3D('',#48,#965,#966);
#965=DIRECTION('',(0,-1,0));
#966=DIRECTION('',(0,0,1));
#967=FACE_BOUND('',#968,.T.);
#968=EDGE_LOOP('',(#969,#970,#971));
#969=ORIENTED_EDGE('',*,*,#972,.T.);
#970=ORIENTED_EDGE('',*,*,#973,.T.);
#971=ORIENTED_EDGE('',*,*,#974,.T.);
#972=EDGE_CURVE('',#49,#43,#975,.F.);
#973=EDGE_CURVE('',#43,#77,#976,.T.);
#974=EDGE_CURVE('',#77,#49,#977,.T.);
#975=LINE('',#48,#978);
#976=LINE('',#42,#979);
#977=LINE('',#76,#980);
#978=VECTOR('',#981,1.0);
#979=VECTOR('',#982,1.0);
#980=VECTOR('',#983,1.0);
#981=DIRECTION('',(0,0,1));
#982=DIRECTION('',(-0.9977250982863921,0,-0.0674138579923238));
#983=DIRECTION('',(1,0,0));
#984=FACE_SURFACE('',(#989),#985,.T.);
#985=PLANE('',#986);
#986=AXIS2_PLACEMENT_3D('',#80,#987,#988);
#987=DIRECTION('',(0,-1,0));
#988=DIRECTION('',(0,0,-1));
#989=FACE_BOUND('',#990,.T.);
#990=EDGE_LOOP('',(#991,#992,#993));
#991=ORIENTED_EDGE('',*,*,#994,.T.);
#992=ORIENTED_EDGE('',*,*,#995,.T.);
#993=ORIENTED_EDGE('',*,*,#996,.T.);
#994=EDGE_CURVE('',#81,#77,#997,.F.);
#995=EDGE_CURVE('',#77,#43,#998,.T.);
#996=EDGE_CURVE('',#43,#81,#999,.T.);
#997=LINE('',#80,#1000);
#998=LINE('',#76,#1001);
#999=LINE('',#42,#1002);
#1000=VECTOR('',#1003,1.0);
#1001=VECTOR('',#1004,1.0);
#1002=VECTOR('',#1005,1.0);
#1003=DIRECTION('',(0,0,-1));
#1004=DIRECTION('',(0.9977250982863921,0,0.0674138579923238));
#1005=DIRECTION('',(-1,0,0));
#1006=FACE_SURFACE('',(#1011),#1007,.T.);
#1007=PLANE('',#1008);
#1008=AXIS2_PLACEMENT_3D('',#74,#1009,#1010);
#1009=DIRECTION('',(0,1,0));
#1010=DIRECTION('',(0.9977250982863921,0,0.0674138579923238));
#1011=FACE_BOUND('',#1012,.T.);
#1012=EDGE_LOOP('',(#1013,#1014,#1015));
#1013=ORIENTED_EDGE('',*,*,#1016,.T.);
#1014=ORIENTED_EDGE('',*,*,#1017,.T.);
#1015=ORIENTED_EDGE('',*,*,#1018,.T.);
#1016=EDGE_CURVE('',#75,#37,#1019,.F.);
#1017=EDGE_CURVE('',#37,#35,#1020,.T.);
#1018=EDGE_CURVE('',#35,#75,#1021,.T.);
#1019=LINE('',#74,#1022);
#1020=LINE('',#36,#1023);
#1021=LINE('',#34,#1024);
#1022=VECTOR('',#1025,1.0);
#1023=VECTOR('',#1026,1.0);
#1024=VECTOR('',#1027,1.0);
#1025=DIRECTION('',(0.9977250982863921,0,0.0674138579923238));
#1026=DIRECTION('',(0,0,-1));
#1027=DIRECTION('',(-1,0,0));
#1028=FACE_SURFACE('',(#1033),#1029,.T.);
#1029=PLANE('',#1030);
#1030=AXIS2_PLACEMENT_3D('',#78,#1031,#1032);
#1031=DIRECTION('',(-0,1,0));
#1032=DIRECTION('',(1,0,0));
#1033=FACE_BOUND('',#1034,.T.);
#1034=EDGE_LOOP('',(#1035,#1036,#1037));
#1035=ORIENTED_EDGE('',*,*,#1038,.T.);
#1036=ORIENTED_EDGE('',*,*,#1039,.T.);
#1037=ORIENTED_EDGE('',*,*,#1040,.T.);
#1038=EDGE_CURVE('',#79,#37,#1041,.F.);
#1039=EDGE_CURVE('',#37,#75,#1042,.T.);
#1040=EDGE_CURVE('',#75,#79,#1043,.T.);
#1041=LINE('',#78,#1044);
#1042=LINE('',#36,#1045);
#1043=LINE('',#74,#1046);
#1044=VECTOR('',#1047,1.0);
#1045=VECTOR('',#1048,1.0);
#1046=VECTOR('',#1049,1.0);
#1047=DIRECTION('',(1,0,0));
#1048=DIRECTION('',(-0.9977250982863921,0,-0.0674138579923238));
#1049=DIRECTION('',(0,0,1));
ENDSEC;
END-ISO-10303-21;
