ISO-10303-21;
HEADER;
/* Generated by software containing ST-Developer
 * from STEP Tools, Inc. (www.steptools.com) 
 */

FILE_DESCRIPTION(
/* description */ (''),
/* implementation_level */ '2;1');

FILE_NAME(
/* name */ 'stepfile.step',
/* time_stamp */ '2026-05-11T20:04:31+03:00',
/* author */ (''),
/* organization */ (''),
/* preprocessor_version */ 'ST-DEVELOPER v20.1',
/* originating_system */ 'Autodesk Translation Framework v14.24.0.0',
/* authorisation */ '');

FILE_SCHEMA (('AUTOMOTIVE_DESIGN { 1 0 10303 214 3 1 1 }'));
ENDSEC;

DATA;
#10=MECHANICAL_DESIGN_GEOMETRIC_PRESENTATION_REPRESENTATION('',(#13),#465);
#11=SHAPE_REPRESENTATION_RELATIONSHIP('SRR','None',#472,#12);
#12=ADVANCED_BREP_SHAPE_REPRESENTATION('',(#14),#464);
#13=STYLED_ITEM('',(#481),#14);
#14=MANIFOLD_SOLID_BREP('Body1',#273);
#15=FACE_BOUND('',#56,.T.);
#16=CIRCLE('',#293,11.);
#17=CIRCLE('',#294,11.);
#18=CIRCLE('',#297,11.);
#19=CIRCLE('',#298,11.);
#20=CIRCLE('',#301,11.);
#21=CIRCLE('',#302,11.);
#22=CIRCLE('',#305,11.);
#23=CIRCLE('',#306,11.);
#24=CYLINDRICAL_SURFACE('',#292,11.);
#25=CYLINDRICAL_SURFACE('',#296,11.);
#26=CYLINDRICAL_SURFACE('',#300,11.);
#27=CYLINDRICAL_SURFACE('',#304,11.);
#28=FACE_OUTER_BOUND('',#43,.T.);
#29=FACE_OUTER_BOUND('',#44,.T.);
#30=FACE_OUTER_BOUND('',#45,.T.);
#31=FACE_OUTER_BOUND('',#46,.T.);
#32=FACE_OUTER_BOUND('',#47,.T.);
#33=FACE_OUTER_BOUND('',#48,.T.);
#34=FACE_OUTER_BOUND('',#49,.T.);
#35=FACE_OUTER_BOUND('',#50,.T.);
#36=FACE_OUTER_BOUND('',#51,.T.);
#37=FACE_OUTER_BOUND('',#52,.T.);
#38=FACE_OUTER_BOUND('',#53,.T.);
#39=FACE_OUTER_BOUND('',#54,.T.);
#40=FACE_OUTER_BOUND('',#55,.T.);
#41=FACE_OUTER_BOUND('',#57,.T.);
#42=FACE_OUTER_BOUND('',#58,.T.);
#43=EDGE_LOOP('',(#175,#176,#177,#178));
#44=EDGE_LOOP('',(#179,#180,#181,#182));
#45=EDGE_LOOP('',(#183,#184,#185,#186));
#46=EDGE_LOOP('',(#187,#188,#189,#190));
#47=EDGE_LOOP('',(#191,#192,#193,#194));
#48=EDGE_LOOP('',(#195,#196,#197,#198));
#49=EDGE_LOOP('',(#199,#200,#201,#202));
#50=EDGE_LOOP('',(#203,#204,#205,#206));
#51=EDGE_LOOP('',(#207,#208,#209,#210));
#52=EDGE_LOOP('',(#211,#212,#213,#214));
#53=EDGE_LOOP('',(#215,#216,#217,#218));
#54=EDGE_LOOP('',(#219,#220,#221,#222));
#55=EDGE_LOOP('',(#223,#224,#225,#226,#227,#228,#229,#230));
#56=EDGE_LOOP('',(#231,#232,#233,#234));
#57=EDGE_LOOP('',(#235,#236,#237,#238));
#58=EDGE_LOOP('',(#239,#240,#241,#242,#243,#244,#245,#246));
#59=LINE('',#390,#87);
#60=LINE('',#392,#88);
#61=LINE('',#394,#89);
#62=LINE('',#395,#90);
#63=LINE('',#398,#91);
#64=LINE('',#400,#92);
#65=LINE('',#401,#93);
#66=LINE('',#404,#94);
#67=LINE('',#406,#95);
#68=LINE('',#407,#96);
#69=LINE('',#409,#97);
#70=LINE('',#410,#98);
#71=LINE('',#414,#99);
#72=LINE('',#416,#100);
#73=LINE('',#418,#101);
#74=LINE('',#419,#102);
#75=LINE('',#425,#103);
#76=LINE('',#428,#104);
#77=LINE('',#430,#105);
#78=LINE('',#431,#106);
#79=LINE('',#437,#107);
#80=LINE('',#440,#108);
#81=LINE('',#442,#109);
#82=LINE('',#443,#110);
#83=LINE('',#449,#111);
#84=LINE('',#452,#112);
#85=LINE('',#454,#113);
#86=LINE('',#455,#114);
#87=VECTOR('',#314,10.);
#88=VECTOR('',#315,10.);
#89=VECTOR('',#316,10.);
#90=VECTOR('',#317,10.);
#91=VECTOR('',#320,10.);
#92=VECTOR('',#321,10.);
#93=VECTOR('',#322,10.);
#94=VECTOR('',#325,10.);
#95=VECTOR('',#326,10.);
#96=VECTOR('',#327,10.);
#97=VECTOR('',#330,10.);
#98=VECTOR('',#331,10.);
#99=VECTOR('',#334,10.);
#100=VECTOR('',#335,10.);
#101=VECTOR('',#336,10.);
#102=VECTOR('',#337,10.);
#103=VECTOR('',#344,10.);
#104=VECTOR('',#347,10.);
#105=VECTOR('',#348,10.);
#106=VECTOR('',#349,10.);
#107=VECTOR('',#356,10.);
#108=VECTOR('',#359,10.);
#109=VECTOR('',#360,10.);
#110=VECTOR('',#361,10.);
#111=VECTOR('',#368,10.);
#112=VECTOR('',#371,10.);
#113=VECTOR('',#372,10.);
#114=VECTOR('',#373,10.);
#115=VERTEX_POINT('',#388);
#116=VERTEX_POINT('',#389);
#117=VERTEX_POINT('',#391);
#118=VERTEX_POINT('',#393);
#119=VERTEX_POINT('',#397);
#120=VERTEX_POINT('',#399);
#121=VERTEX_POINT('',#403);
#122=VERTEX_POINT('',#405);
#123=VERTEX_POINT('',#412);
#124=VERTEX_POINT('',#413);
#125=VERTEX_POINT('',#415);
#126=VERTEX_POINT('',#417);
#127=VERTEX_POINT('',#421);
#128=VERTEX_POINT('',#423);
#129=VERTEX_POINT('',#427);
#130=VERTEX_POINT('',#429);
#131=VERTEX_POINT('',#433);
#132=VERTEX_POINT('',#435);
#133=VERTEX_POINT('',#439);
#134=VERTEX_POINT('',#441);
#135=VERTEX_POINT('',#445);
#136=VERTEX_POINT('',#447);
#137=VERTEX_POINT('',#451);
#138=VERTEX_POINT('',#453);
#139=EDGE_CURVE('',#115,#116,#59,.T.);
#140=EDGE_CURVE('',#115,#117,#60,.T.);
#141=EDGE_CURVE('',#118,#117,#61,.T.);
#142=EDGE_CURVE('',#116,#118,#62,.T.);
#143=EDGE_CURVE('',#119,#115,#63,.T.);
#144=EDGE_CURVE('',#119,#120,#64,.T.);
#145=EDGE_CURVE('',#117,#120,#65,.T.);
#146=EDGE_CURVE('',#116,#121,#66,.T.);
#147=EDGE_CURVE('',#122,#118,#67,.T.);
#148=EDGE_CURVE('',#121,#122,#68,.T.);
#149=EDGE_CURVE('',#121,#119,#69,.T.);
#150=EDGE_CURVE('',#120,#122,#70,.T.);
#151=EDGE_CURVE('',#123,#124,#71,.T.);
#152=EDGE_CURVE('',#123,#125,#72,.T.);
#153=EDGE_CURVE('',#126,#125,#73,.T.);
#154=EDGE_CURVE('',#124,#126,#74,.T.);
#155=EDGE_CURVE('',#127,#124,#16,.T.);
#156=EDGE_CURVE('',#128,#126,#17,.T.);
#157=EDGE_CURVE('',#127,#128,#75,.T.);
#158=EDGE_CURVE('',#129,#127,#76,.T.);
#159=EDGE_CURVE('',#130,#128,#77,.T.);
#160=EDGE_CURVE('',#129,#130,#78,.T.);
#161=EDGE_CURVE('',#131,#129,#18,.T.);
#162=EDGE_CURVE('',#132,#130,#19,.T.);
#163=EDGE_CURVE('',#131,#132,#79,.T.);
#164=EDGE_CURVE('',#131,#133,#80,.T.);
#165=EDGE_CURVE('',#134,#132,#81,.T.);
#166=EDGE_CURVE('',#133,#134,#82,.T.);
#167=EDGE_CURVE('',#135,#133,#20,.T.);
#168=EDGE_CURVE('',#136,#134,#21,.T.);
#169=EDGE_CURVE('',#135,#136,#83,.T.);
#170=EDGE_CURVE('',#137,#135,#84,.T.);
#171=EDGE_CURVE('',#138,#136,#85,.T.);
#172=EDGE_CURVE('',#137,#138,#86,.T.);
#173=EDGE_CURVE('',#123,#137,#22,.T.);
#174=EDGE_CURVE('',#125,#138,#23,.T.);
#175=ORIENTED_EDGE('',*,*,#139,.F.);
#176=ORIENTED_EDGE('',*,*,#140,.T.);
#177=ORIENTED_EDGE('',*,*,#141,.F.);
#178=ORIENTED_EDGE('',*,*,#142,.F.);
#179=ORIENTED_EDGE('',*,*,#143,.F.);
#180=ORIENTED_EDGE('',*,*,#144,.T.);
#181=ORIENTED_EDGE('',*,*,#145,.F.);
#182=ORIENTED_EDGE('',*,*,#140,.F.);
#183=ORIENTED_EDGE('',*,*,#146,.F.);
#184=ORIENTED_EDGE('',*,*,#142,.T.);
#185=ORIENTED_EDGE('',*,*,#147,.F.);
#186=ORIENTED_EDGE('',*,*,#148,.F.);
#187=ORIENTED_EDGE('',*,*,#149,.F.);
#188=ORIENTED_EDGE('',*,*,#148,.T.);
#189=ORIENTED_EDGE('',*,*,#150,.F.);
#190=ORIENTED_EDGE('',*,*,#144,.F.);
#191=ORIENTED_EDGE('',*,*,#151,.F.);
#192=ORIENTED_EDGE('',*,*,#152,.T.);
#193=ORIENTED_EDGE('',*,*,#153,.F.);
#194=ORIENTED_EDGE('',*,*,#154,.F.);
#195=ORIENTED_EDGE('',*,*,#155,.T.);
#196=ORIENTED_EDGE('',*,*,#154,.T.);
#197=ORIENTED_EDGE('',*,*,#156,.F.);
#198=ORIENTED_EDGE('',*,*,#157,.F.);
#199=ORIENTED_EDGE('',*,*,#158,.T.);
#200=ORIENTED_EDGE('',*,*,#157,.T.);
#201=ORIENTED_EDGE('',*,*,#159,.F.);
#202=ORIENTED_EDGE('',*,*,#160,.F.);
#203=ORIENTED_EDGE('',*,*,#161,.T.);
#204=ORIENTED_EDGE('',*,*,#160,.T.);
#205=ORIENTED_EDGE('',*,*,#162,.F.);
#206=ORIENTED_EDGE('',*,*,#163,.F.);
#207=ORIENTED_EDGE('',*,*,#164,.F.);
#208=ORIENTED_EDGE('',*,*,#163,.T.);
#209=ORIENTED_EDGE('',*,*,#165,.F.);
#210=ORIENTED_EDGE('',*,*,#166,.F.);
#211=ORIENTED_EDGE('',*,*,#167,.T.);
#212=ORIENTED_EDGE('',*,*,#166,.T.);
#213=ORIENTED_EDGE('',*,*,#168,.F.);
#214=ORIENTED_EDGE('',*,*,#169,.F.);
#215=ORIENTED_EDGE('',*,*,#170,.T.);
#216=ORIENTED_EDGE('',*,*,#169,.T.);
#217=ORIENTED_EDGE('',*,*,#171,.F.);
#218=ORIENTED_EDGE('',*,*,#172,.F.);
#219=ORIENTED_EDGE('',*,*,#173,.T.);
#220=ORIENTED_EDGE('',*,*,#172,.T.);
#221=ORIENTED_EDGE('',*,*,#174,.F.);
#222=ORIENTED_EDGE('',*,*,#152,.F.);
#223=ORIENTED_EDGE('',*,*,#174,.T.);
#224=ORIENTED_EDGE('',*,*,#171,.T.);
#225=ORIENTED_EDGE('',*,*,#168,.T.);
#226=ORIENTED_EDGE('',*,*,#165,.T.);
#227=ORIENTED_EDGE('',*,*,#162,.T.);
#228=ORIENTED_EDGE('',*,*,#159,.T.);
#229=ORIENTED_EDGE('',*,*,#156,.T.);
#230=ORIENTED_EDGE('',*,*,#153,.T.);
#231=ORIENTED_EDGE('',*,*,#145,.T.);
#232=ORIENTED_EDGE('',*,*,#150,.T.);
#233=ORIENTED_EDGE('',*,*,#147,.T.);
#234=ORIENTED_EDGE('',*,*,#141,.T.);
#235=ORIENTED_EDGE('',*,*,#143,.T.);
#236=ORIENTED_EDGE('',*,*,#139,.T.);
#237=ORIENTED_EDGE('',*,*,#146,.T.);
#238=ORIENTED_EDGE('',*,*,#149,.T.);
#239=ORIENTED_EDGE('',*,*,#173,.F.);
#240=ORIENTED_EDGE('',*,*,#151,.T.);
#241=ORIENTED_EDGE('',*,*,#155,.F.);
#242=ORIENTED_EDGE('',*,*,#158,.F.);
#243=ORIENTED_EDGE('',*,*,#161,.F.);
#244=ORIENTED_EDGE('',*,*,#164,.T.);
#245=ORIENTED_EDGE('',*,*,#167,.F.);
#246=ORIENTED_EDGE('',*,*,#170,.F.);
#247=PLANE('',#287);
#248=PLANE('',#288);
#249=PLANE('',#289);
#250=PLANE('',#290);
#251=PLANE('',#291);
#252=PLANE('',#295);
#253=PLANE('',#299);
#254=PLANE('',#303);
#255=PLANE('',#307);
#256=PLANE('',#308);
#257=PLANE('',#309);
#258=ADVANCED_FACE('',(#28),#247,.T.);
#259=ADVANCED_FACE('',(#29),#248,.T.);
#260=ADVANCED_FACE('',(#30),#249,.T.);
#261=ADVANCED_FACE('',(#31),#250,.T.);
#262=ADVANCED_FACE('',(#32),#251,.T.);
#263=ADVANCED_FACE('',(#33),#24,.T.);
#264=ADVANCED_FACE('',(#34),#252,.T.);
#265=ADVANCED_FACE('',(#35),#25,.T.);
#266=ADVANCED_FACE('',(#36),#253,.T.);
#267=ADVANCED_FACE('',(#37),#26,.T.);
#268=ADVANCED_FACE('',(#38),#254,.T.);
#269=ADVANCED_FACE('',(#39),#27,.T.);
#270=ADVANCED_FACE('',(#40,#15),#255,.T.);
#271=ADVANCED_FACE('',(#41),#256,.T.);
#272=ADVANCED_FACE('',(#42),#257,.F.);
#273=CLOSED_SHELL('',(#258,#259,#260,#261,#262,#263,#264,#265,#266,#267,
#268,#269,#270,#271,#272));
#274=DERIVED_UNIT_ELEMENT(#276,1.);
#275=DERIVED_UNIT_ELEMENT(#467,-3.);
#276=(
MASS_UNIT()
NAMED_UNIT(*)
SI_UNIT(.KILO.,.GRAM.)
);
#277=DERIVED_UNIT((#274,#275));
#278=MEASURE_REPRESENTATION_ITEM('density measure',
POSITIVE_RATIO_MEASURE(7850.),#277);
#279=PROPERTY_DEFINITION_REPRESENTATION(#284,#281);
#280=PROPERTY_DEFINITION_REPRESENTATION(#285,#282);
#281=REPRESENTATION('material name',(#283),#464);
#282=REPRESENTATION('density',(#278),#464);
#283=DESCRIPTIVE_REPRESENTATION_ITEM('Steel','Steel');
#284=PROPERTY_DEFINITION('material property','material name',#474);
#285=PROPERTY_DEFINITION('material property','density of part',#474);
#286=AXIS2_PLACEMENT_3D('',#386,#310,#311);
#287=AXIS2_PLACEMENT_3D('',#387,#312,#313);
#288=AXIS2_PLACEMENT_3D('',#396,#318,#319);
#289=AXIS2_PLACEMENT_3D('',#402,#323,#324);
#290=AXIS2_PLACEMENT_3D('',#408,#328,#329);
#291=AXIS2_PLACEMENT_3D('',#411,#332,#333);
#292=AXIS2_PLACEMENT_3D('',#420,#338,#339);
#293=AXIS2_PLACEMENT_3D('',#422,#340,#341);
#294=AXIS2_PLACEMENT_3D('',#424,#342,#343);
#295=AXIS2_PLACEMENT_3D('',#426,#345,#346);
#296=AXIS2_PLACEMENT_3D('',#432,#350,#351);
#297=AXIS2_PLACEMENT_3D('',#434,#352,#353);
#298=AXIS2_PLACEMENT_3D('',#436,#354,#355);
#299=AXIS2_PLACEMENT_3D('',#438,#357,#358);
#300=AXIS2_PLACEMENT_3D('',#444,#362,#363);
#301=AXIS2_PLACEMENT_3D('',#446,#364,#365);
#302=AXIS2_PLACEMENT_3D('',#448,#366,#367);
#303=AXIS2_PLACEMENT_3D('',#450,#369,#370);
#304=AXIS2_PLACEMENT_3D('',#456,#374,#375);
#305=AXIS2_PLACEMENT_3D('',#457,#376,#377);
#306=AXIS2_PLACEMENT_3D('',#458,#378,#379);
#307=AXIS2_PLACEMENT_3D('',#459,#380,#381);
#308=AXIS2_PLACEMENT_3D('',#460,#382,#383);
#309=AXIS2_PLACEMENT_3D('',#461,#384,#385);
#310=DIRECTION('axis',(0.,0.,1.));
#311=DIRECTION('refdir',(1.,0.,0.));
#312=DIRECTION('center_axis',(1.,-3.85381885692457E-33,0.));
#313=DIRECTION('ref_axis',(3.85381885692457E-33,1.,0.));
#314=DIRECTION('',(-3.85381885692457E-33,-1.,0.));
#315=DIRECTION('',(0.,0.,1.));
#316=DIRECTION('',(3.85381885692457E-33,1.,0.));
#317=DIRECTION('',(0.,0.,1.));
#318=DIRECTION('center_axis',(0.,-1.,0.));
#319=DIRECTION('ref_axis',(1.,0.,0.));
#320=DIRECTION('',(-1.,0.,0.));
#321=DIRECTION('',(0.,0.,1.));
#322=DIRECTION('',(1.,0.,0.));
#323=DIRECTION('center_axis',(0.,1.,0.));
#324=DIRECTION('ref_axis',(-1.,0.,0.));
#325=DIRECTION('',(1.,0.,0.));
#326=DIRECTION('',(-1.,0.,0.));
#327=DIRECTION('',(0.,0.,1.));
#328=DIRECTION('center_axis',(-1.,0.,0.));
#329=DIRECTION('ref_axis',(0.,-1.,0.));
#330=DIRECTION('',(0.,1.,0.));
#331=DIRECTION('',(0.,-1.,0.));
#332=DIRECTION('center_axis',(-3.27678238751282E-18,-1.,0.));
#333=DIRECTION('ref_axis',(1.,-3.27678238751282E-18,0.));
#334=DIRECTION('',(-1.,3.27678238751282E-18,0.));
#335=DIRECTION('',(0.,0.,1.));
#336=DIRECTION('',(1.,-3.27678238751282E-18,0.));
#337=DIRECTION('',(0.,0.,1.));
#338=DIRECTION('center_axis',(0.,0.,1.));
#339=DIRECTION('ref_axis',(-1.,1.71579921987524E-15,0.));
#340=DIRECTION('center_axis',(0.,0.,1.));
#341=DIRECTION('ref_axis',(-1.,1.71579921987524E-15,0.));
#342=DIRECTION('center_axis',(0.,0.,1.));
#343=DIRECTION('ref_axis',(-1.,1.71579921987524E-15,0.));
#344=DIRECTION('',(0.,0.,1.));
#345=DIRECTION('center_axis',(-1.,9.8573460176789E-18,0.));
#346=DIRECTION('ref_axis',(-9.8573460176789E-18,-1.,0.));
#347=DIRECTION('',(-9.8573460176789E-18,-1.,0.));
#348=DIRECTION('',(-9.8573460176789E-18,-1.,0.));
#349=DIRECTION('',(0.,0.,1.));
#350=DIRECTION('center_axis',(0.,0.,1.));
#351=DIRECTION('ref_axis',(8.07434927000114E-16,1.,0.));
#352=DIRECTION('center_axis',(0.,0.,1.));
#353=DIRECTION('ref_axis',(8.07434927000114E-16,1.,0.));
#354=DIRECTION('center_axis',(0.,0.,1.));
#355=DIRECTION('ref_axis',(8.07434927000114E-16,1.,0.));
#356=DIRECTION('',(0.,0.,1.));
#357=DIRECTION('center_axis',(0.,1.,0.));
#358=DIRECTION('ref_axis',(-1.,0.,0.));
#359=DIRECTION('',(1.,0.,0.));
#360=DIRECTION('',(-1.,0.,0.));
#361=DIRECTION('',(0.,0.,1.));
#362=DIRECTION('center_axis',(0.,0.,1.));
#363=DIRECTION('ref_axis',(1.,1.61486985400023E-15,0.));
#364=DIRECTION('center_axis',(0.,0.,1.));
#365=DIRECTION('ref_axis',(1.,1.61486985400023E-15,0.));
#366=DIRECTION('center_axis',(0.,0.,1.));
#367=DIRECTION('ref_axis',(1.,1.61486985400023E-15,0.));
#368=DIRECTION('',(0.,0.,1.));
#369=DIRECTION('center_axis',(1.,0.,0.));
#370=DIRECTION('ref_axis',(0.,1.,0.));
#371=DIRECTION('',(0.,1.,0.));
#372=DIRECTION('',(0.,1.,0.));
#373=DIRECTION('',(0.,0.,1.));
#374=DIRECTION('center_axis',(0.,0.,1.));
#375=DIRECTION('ref_axis',(0.,-1.,0.));
#376=DIRECTION('center_axis',(0.,0.,1.));
#377=DIRECTION('ref_axis',(0.,-1.,0.));
#378=DIRECTION('center_axis',(0.,0.,1.));
#379=DIRECTION('ref_axis',(0.,-1.,0.));
#380=DIRECTION('center_axis',(0.,0.,1.));
#381=DIRECTION('ref_axis',(1.,0.,0.));
#382=DIRECTION('center_axis',(0.,0.,1.));
#383=DIRECTION('ref_axis',(1.,0.,0.));
#384=DIRECTION('center_axis',(0.,0.,1.));
#385=DIRECTION('ref_axis',(1.,0.,0.));
#386=CARTESIAN_POINT('',(0.,0.,0.));
#387=CARTESIAN_POINT('Origin',(0.,0.,0.));
#388=CARTESIAN_POINT('',(0.,124.629,3.));
#389=CARTESIAN_POINT('',(0.,0.,3.));
#390=CARTESIAN_POINT('',(0.,0.,3.));
#391=CARTESIAN_POINT('',(4.80297590319652E-31,124.629,25.));
#392=CARTESIAN_POINT('',(4.80297590319652E-31,124.629,0.));
#393=CARTESIAN_POINT('',(0.,0.,25.));
#394=CARTESIAN_POINT('',(0.,0.,25.));
#395=CARTESIAN_POINT('',(0.,0.,0.));
#396=CARTESIAN_POINT('Origin',(0.,124.629,0.));
#397=CARTESIAN_POINT('',(350.815,124.629,3.));
#398=CARTESIAN_POINT('',(350.815,124.629,3.));
#399=CARTESIAN_POINT('',(350.815,124.629,25.));
#400=CARTESIAN_POINT('',(350.815,124.629,0.));
#401=CARTESIAN_POINT('',(350.815,124.629,25.));
#402=CARTESIAN_POINT('Origin',(350.815,0.,0.));
#403=CARTESIAN_POINT('',(350.815,0.,3.));
#404=CARTESIAN_POINT('',(0.,0.,3.));
#405=CARTESIAN_POINT('',(350.815,0.,25.));
#406=CARTESIAN_POINT('',(0.,0.,25.));
#407=CARTESIAN_POINT('',(350.815,0.,0.));
#408=CARTESIAN_POINT('Origin',(350.815,124.629,0.));
#409=CARTESIAN_POINT('',(350.815,124.629,3.));
#410=CARTESIAN_POINT('',(350.815,124.629,25.));
#411=CARTESIAN_POINT('Origin',(6.00000000000016,-5.,0.));
#412=CARTESIAN_POINT('',(344.815,-5.,0.));
#413=CARTESIAN_POINT('',(6.00000000000016,-5.,0.));
#414=CARTESIAN_POINT('',(344.815,-5.,0.));
#415=CARTESIAN_POINT('',(344.815,-5.,25.));
#416=CARTESIAN_POINT('',(344.815,-5.,0.));
#417=CARTESIAN_POINT('',(6.00000000000016,-5.,25.));
#418=CARTESIAN_POINT('',(344.815,-5.,25.));
#419=CARTESIAN_POINT('',(6.00000000000016,-5.,0.));
#420=CARTESIAN_POINT('Origin',(6.00000000000014,6.,0.));
#421=CARTESIAN_POINT('',(-4.99999999999986,6.00000000000001,0.));
#422=CARTESIAN_POINT('Origin',(6.00000000000014,6.,0.));
#423=CARTESIAN_POINT('',(-4.99999999999986,6.00000000000001,25.));
#424=CARTESIAN_POINT('Origin',(6.00000000000014,6.,25.));
#425=CARTESIAN_POINT('',(-4.99999999999986,6.00000000000001,0.));
#426=CARTESIAN_POINT('Origin',(-4.99999999999986,118.629,0.));
#427=CARTESIAN_POINT('',(-4.99999999999987,118.629,0.));
#428=CARTESIAN_POINT('',(-4.99999999999986,118.629,0.));
#429=CARTESIAN_POINT('',(-4.99999999999987,118.629,25.));
#430=CARTESIAN_POINT('',(-4.99999999999986,118.629,25.));
#431=CARTESIAN_POINT('',(-4.99999999999987,118.629,0.));
#432=CARTESIAN_POINT('Origin',(6.00000000000013,118.629,0.));
#433=CARTESIAN_POINT('',(6.00000000000014,129.629,0.));
#434=CARTESIAN_POINT('Origin',(6.00000000000013,118.629,0.));
#435=CARTESIAN_POINT('',(6.00000000000014,129.629,25.));
#436=CARTESIAN_POINT('Origin',(6.00000000000013,118.629,25.));
#437=CARTESIAN_POINT('',(6.00000000000014,129.629,0.));
#438=CARTESIAN_POINT('Origin',(344.815,129.629,0.));
#439=CARTESIAN_POINT('',(344.815,129.629,0.));
#440=CARTESIAN_POINT('',(4.80297590319652E-31,129.629,0.));
#441=CARTESIAN_POINT('',(344.815,129.629,25.));
#442=CARTESIAN_POINT('',(4.80297590319652E-31,129.629,25.));
#443=CARTESIAN_POINT('',(344.815,129.629,0.));
#444=CARTESIAN_POINT('Origin',(344.815,118.629,0.));
#445=CARTESIAN_POINT('',(355.815,118.629,0.));
#446=CARTESIAN_POINT('Origin',(344.815,118.629,0.));
#447=CARTESIAN_POINT('',(355.815,118.629,25.));
#448=CARTESIAN_POINT('Origin',(344.815,118.629,25.));
#449=CARTESIAN_POINT('',(355.815,118.629,0.));
#450=CARTESIAN_POINT('Origin',(355.815,6.,0.));
#451=CARTESIAN_POINT('',(355.815,6.,0.));
#452=CARTESIAN_POINT('',(355.815,6.,0.));
#453=CARTESIAN_POINT('',(355.815,6.,25.));
#454=CARTESIAN_POINT('',(355.815,6.,25.));
#455=CARTESIAN_POINT('',(355.815,6.,0.));
#456=CARTESIAN_POINT('Origin',(344.815,6.00000000000001,0.));
#457=CARTESIAN_POINT('Origin',(344.815,6.00000000000001,0.));
#458=CARTESIAN_POINT('Origin',(344.815,6.00000000000001,25.));
#459=CARTESIAN_POINT('Origin',(175.4075,62.3145,25.));
#460=CARTESIAN_POINT('Origin',(175.4075,62.3145,3.));
#461=CARTESIAN_POINT('Origin',(175.4075,62.3145,0.));
#462=UNCERTAINTY_MEASURE_WITH_UNIT(LENGTH_MEASURE(0.01),#466,
'DISTANCE_ACCURACY_VALUE',
'Maximum model space distance between geometric entities at asserted c
onnectivities');
#463=UNCERTAINTY_MEASURE_WITH_UNIT(LENGTH_MEASURE(0.01),#466,
'DISTANCE_ACCURACY_VALUE',
'Maximum model space distance between geometric entities at asserted c
onnectivities');
#464=(
GEOMETRIC_REPRESENTATION_CONTEXT(3)
GLOBAL_UNCERTAINTY_ASSIGNED_CONTEXT((#462))
GLOBAL_UNIT_ASSIGNED_CONTEXT((#466,#468,#469))
REPRESENTATION_CONTEXT('','3D')
);
#465=(
GEOMETRIC_REPRESENTATION_CONTEXT(3)
GLOBAL_UNCERTAINTY_ASSIGNED_CONTEXT((#463))
GLOBAL_UNIT_ASSIGNED_CONTEXT((#466,#468,#469))
REPRESENTATION_CONTEXT('','3D')
);
#466=(
LENGTH_UNIT()
NAMED_UNIT(*)
SI_UNIT(.MILLI.,.METRE.)
);
#467=(
LENGTH_UNIT()
NAMED_UNIT(*)
SI_UNIT($,.METRE.)
);
#468=(
NAMED_UNIT(*)
PLANE_ANGLE_UNIT()
SI_UNIT($,.RADIAN.)
);
#469=(
NAMED_UNIT(*)
SI_UNIT($,.STERADIAN.)
SOLID_ANGLE_UNIT()
);
#470=SHAPE_DEFINITION_REPRESENTATION(#471,#472);
#471=PRODUCT_DEFINITION_SHAPE('',$,#474);
#472=SHAPE_REPRESENTATION('',(#286),#464);
#473=PRODUCT_DEFINITION_CONTEXT('part definition',#478,'design');
#474=PRODUCT_DEFINITION('Untitled','Untitled v5',#475,#473);
#475=PRODUCT_DEFINITION_FORMATION('',$,#480);
#476=PRODUCT_RELATED_PRODUCT_CATEGORY('Untitled v5','Untitled v5',(#480));
#477=APPLICATION_PROTOCOL_DEFINITION('international standard',
'automotive_design',2009,#478);
#478=APPLICATION_CONTEXT(
'Core Data for Automotive Mechanical Design Process');
#479=PRODUCT_CONTEXT('part definition',#478,'mechanical');
#480=PRODUCT('Untitled','Untitled v5',$,(#479));
#481=PRESENTATION_STYLE_ASSIGNMENT((#482));
#482=SURFACE_STYLE_USAGE(.BOTH.,#483);
#483=SURFACE_SIDE_STYLE('',(#484));
#484=SURFACE_STYLE_FILL_AREA(#485);
#485=FILL_AREA_STYLE('Steel - Satin',(#486));
#486=FILL_AREA_STYLE_COLOUR('Steel - Satin',#487);
#487=COLOUR_RGB('Steel - Satin',0.627450980392157,0.627450980392157,0.627450980392157);
ENDSEC;
END-ISO-10303-21;
